<svg width="252" height="62" viewBox="0 0 252 62" fill="none" xmlns="http://www.w3.org/2000/svg">
<path d="M79.5329 0H84.9183V46.4511C84.9247 47.1307 84.8 47.8046 84.5516 48.4327C84.3032 49.0607 83.9363 49.6299 83.4727 50.1063C83.03 50.6006 82.4939 50.9932 81.8984 51.2592C81.3028 51.5252 80.6608 51.6588 80.0132 51.6515H75.1035V48.6964C72.1201 50.5789 68.7041 51.5802 65.2194 51.5936C62.6278 51.6333 60.0559 51.1173 57.6624 50.0776C55.2689 49.0378 53.1047 47.4963 51.3032 45.5481C49.4678 43.6367 48.0121 41.3647 47.0196 38.863C46.0272 36.3612 45.5178 33.679 45.5205 30.9706C45.5217 28.2679 46.0323 25.5919 47.023 23.0955C48.0137 20.5992 49.4652 18.3313 51.2946 16.4216C53.1239 14.5118 55.2952 12.9975 57.6845 11.9653C60.0738 10.9331 62.6342 10.4031 65.2194 10.4056C68.6939 10.412 72.1045 11.3818 75.1035 13.2159V4.63545C75.1035 3.40689 75.57 2.22858 76.4006 1.3594C77.2311 0.490221 78.3577 0.00127975 79.5329 0ZM75.1035 31.2796V30.6471C75.0708 28.8696 74.5827 27.1338 73.6902 25.6205C72.8147 24.1196 71.5895 22.8753 70.1291 22.0039C68.6235 21.1213 66.9252 20.6606 65.199 20.6666C63.4728 20.6725 61.7774 21.1448 60.2774 22.0377C58.7855 22.943 57.5454 24.2395 56.6794 25.7992C55.5806 27.7649 55.1364 30.056 55.4164 32.3138C55.6964 34.5716 56.6847 36.6685 58.2267 38.2763C60.0551 40.2141 62.5449 41.3133 65.1485 41.3323C67.7521 41.3513 70.2564 40.2886 72.1106 38.3777C73.032 37.4589 73.7708 36.3589 74.2844 35.1408C74.798 33.9227 75.0764 32.6105 75.1035 31.2796Z" fill="#3772FF"/>
<path d="M94.8533 16.4511C98.5528 12.5866 103.567 10.4125 108.797 10.4053C114.026 10.3981 119.046 12.5582 122.755 16.4125C124.627 18.2923 126.108 20.5541 127.109 23.0577C128.109 25.5612 128.606 28.253 128.57 30.9659C128.61 33.6805 128.117 36.3749 127.123 38.8829C126.128 41.3908 124.653 43.6592 122.787 45.5483C120.956 47.4645 118.781 48.9846 116.387 50.0218C113.993 51.0589 111.428 51.5927 108.836 51.5927C106.245 51.5927 103.679 51.0589 101.286 50.0218C98.892 48.9846 96.7172 47.4645 94.8856 45.5483C93.0194 43.6599 91.5435 41.3917 90.5489 38.8835C89.5543 36.3754 89.0622 33.6807 89.1029 30.9659C89.0542 28.263 89.5398 25.5788 90.5292 23.0812C91.5187 20.5836 92.9908 18.3264 94.8533 16.4511ZM101.841 38.3102C102.754 39.2707 103.839 40.0323 105.035 40.551C106.231 41.0698 107.514 41.3352 108.809 41.3321C110.103 41.3289 111.385 41.0572 112.578 40.5327C113.772 40.0082 114.854 39.2413 115.762 38.2764C116.693 37.3261 117.429 36.1881 117.926 34.9314C118.423 33.6748 118.67 32.3256 118.654 30.9659C118.598 28.2736 117.536 25.7112 115.695 23.8277C113.854 21.9442 111.38 20.8895 108.804 20.8895C106.228 20.8895 103.755 21.9442 101.914 23.8277C100.073 25.7112 99.0105 28.2736 98.9547 30.9659C98.9409 32.3315 99.1911 33.686 99.6904 34.948C100.19 36.21 100.928 37.3536 101.86 38.3102H101.841Z" fill="#3772FF"/>
<path d="M172.055 26.784C172.685 29.887 172.604 33.1018 171.819 36.166C171.105 39.089 169.785 41.8122 167.953 44.1428C166.12 46.4266 163.839 48.2724 161.265 49.5557C158.377 51.0252 155.183 51.7175 151.974 51.57C148.764 51.4224 145.641 50.4396 142.887 48.7107V56.7938C142.895 57.4735 142.77 58.1478 142.522 58.776C142.274 59.4042 141.906 59.9733 141.442 60.449C140.989 60.9499 140.441 61.3465 139.834 61.6134C139.226 61.8803 138.572 62.0117 137.913 61.999H133.059V10.333H142.887V13.2302C145.251 11.7197 147.905 10.7729 150.66 10.4574C153.414 10.1419 156.201 10.4655 158.822 11.405C162.15 12.5048 165.135 14.5193 167.464 17.2379C169.813 19.9121 171.402 23.2178 172.055 26.784ZM145.765 38.3099C147.152 39.7492 148.917 40.7269 150.835 41.1199C152.753 41.5128 154.74 41.3034 156.545 40.5181C158.349 39.7328 159.891 38.4066 160.976 36.7067C162.061 35.0068 162.641 33.0092 162.642 30.9656C162.642 28.2251 161.6 25.5968 159.747 23.6589C157.893 21.7211 155.379 20.6324 152.757 20.6324C150.136 20.6324 147.622 21.7211 145.768 23.6589C143.915 25.5968 142.873 28.2251 142.873 30.9656C142.858 32.3302 143.106 33.684 143.603 34.946C144.099 36.208 144.835 37.3521 145.765 38.3099Z" fill="#3772FF"/>
<path d="M241.844 36.4128H251.595C251.616 39.136 250.944 41.816 249.646 44.1772C248.371 46.5173 246.511 48.4504 244.265 49.7687C242.016 51.1154 239.467 51.8182 236.875 51.8063C235.205 51.8129 233.545 51.5273 231.965 50.9613C229.086 49.9024 226.594 47.9328 224.834 45.3257C223.074 42.7186 222.135 39.6035 222.146 36.4128V0.198303H226.986C227.862 0.193825 228.722 0.437449 229.476 0.903278C230.226 1.36296 230.851 2.01636 231.291 2.80092C231.735 3.5909 231.966 4.49194 231.96 5.40836V10.686H251.595V20.8599H231.96V37.4654C232.209 38.7327 232.898 39.8584 233.896 40.6243C234.893 41.3902 236.127 41.7416 237.358 41.6105C238.589 41.4794 239.729 40.8751 240.558 39.9147C241.387 38.9544 241.846 37.7064 241.844 36.4128Z" fill="#3772FF"/>
<path d="M29.5855 10.333V13.2302C26.5868 11.3954 23.176 10.4256 19.7014 10.4199C17.114 10.3773 14.5454 10.8867 12.1527 11.917C9.75998 12.9473 7.59334 14.4769 5.78519 16.4122C3.91804 18.2937 2.44113 20.5566 1.44632 23.0603C0.451501 25.564 -0.0399475 28.2549 0.0025373 30.9656C-0.0382579 33.6804 0.453848 36.3751 1.44845 38.8832C2.44306 41.3914 3.91903 43.6596 5.78519 45.548C7.58635 47.4966 9.75055 49.0384 12.1441 50.0782C14.5377 51.118 17.1097 51.6337 19.7014 51.5934C23.3394 51.592 26.9037 50.5211 29.9874 48.5031C30.3955 49.3945 31.0217 50.1574 31.8025 50.7146C32.5905 51.2939 33.532 51.6012 34.4952 51.5934H39.428V10.333H29.5855ZM23.2301 24.8526C23.4703 23.1095 24.8005 21.9554 26.2 22.3224C27.5995 22.6894 28.5371 24.3504 28.2969 26.0887C28.0567 27.827 26.7265 28.9859 25.3271 28.6189C23.9276 28.2519 22.99 26.5909 23.2301 24.8526ZM17.5445 18.9762C18.8008 18.0877 20.519 18.6768 21.3827 20.2896C22.2464 21.9023 21.9323 23.94 20.676 24.8285C19.4197 25.7169 17.7061 25.1327 16.8424 23.5151C15.9787 21.8975 16.2928 19.8936 17.5445 18.9762ZM11.1198 21.8734C12.3761 20.9849 14.0943 21.5691 14.958 23.1867C15.8217 24.8043 15.5076 26.8371 14.2513 27.7256C12.995 28.6141 11.2815 28.0298 10.4178 26.4122C9.55408 24.7947 9.86815 22.7908 11.1198 21.8927V21.8734ZM12.8426 34.2684C12.1267 35.5721 10.427 35.8135 9.04602 34.8092C7.66502 33.8048 7.12924 31.912 7.84515 30.6324C8.56105 29.3528 10.2607 29.0873 11.6417 30.0916C13.0227 31.096 13.5631 32.9839 12.8426 34.2877V34.2684ZM28.2599 37.6484C26.5233 39.039 23.9738 37.4359 21.8676 38.3727C19.7338 39.2273 18.9578 42.2355 16.787 42.4915C14.6162 42.7474 12.9535 40.28 14.9395 35.7894C16.2328 32.7667 15.8725 30.1785 18.2604 29.0969C20.6945 28.1312 22.1586 30.2703 25.1562 31.5112C29.5578 33.2978 29.9966 36.2819 28.2599 37.6677V37.6484Z" fill="#3772FF"/>
<path d="M205.472 36.7214C204.469 38.5156 202.952 39.9346 201.135 40.7774C199.323 41.6479 197.298 41.9094 195.338 41.5258C193.424 41.1783 191.648 40.2574 190.225 38.8749L216.122 26.7503L215.818 25.35C215.783 25.0898 215.723 24.8341 215.637 24.5871C215.481 23.9981 215.284 23.4219 215.046 22.8633C214.249 20.9618 213.157 19.2111 211.813 17.6822C209.106 14.3486 205.414 12.0532 201.319 11.1588C197.195 10.1732 192.874 10.64 189.029 12.4866C186.462 13.6759 184.169 15.4265 182.304 17.6204C180.439 19.8143 179.045 22.4007 178.217 25.2052C177.413 27.9695 177.167 30.8783 177.496 33.747C177.886 37.1544 179.101 40.4017 181.025 43.182C182.791 45.8132 185.125 47.9726 187.837 49.4855C190.55 50.9984 193.566 51.8223 196.64 51.8905C199.714 51.9587 202.76 51.2692 205.531 49.8779C208.303 48.4867 210.722 46.4327 212.594 43.8822C214.147 41.7444 215.29 39.3129 215.961 36.7214H205.472ZM189.251 24.7223C190.224 23.4165 191.494 22.3857 192.946 21.7238C194.392 21.0332 195.978 20.7248 197.564 20.8256C199.124 20.927 200.642 21.3923 202.008 22.1873L187.283 29.0681C187.623 27.4849 188.295 26.0005 189.251 24.7223Z" fill="#3772FF"/>
</svg>
